# Blender v2.81 (sub 16) OBJ File: 'pack1.blend'
# www.blender.org
mtllib diamond.mtl
o diamond_Cone.007
v -0.000000 1.000000 1.000000
v 1.000000 1.000000 0.000000
v -0.000000 1.000000 -1.000000
v 0.000000 -1.000000 -0.000000
v -1.000000 1.000000 0.000000
v 0.000000 3.000000 0.000000
vt 0.000000 0.500000
vt 0.500000 1.500000
vt 0.500000 0.500000
vt 0.500000 0.500000
vt 1.000000 0.500000
vt 0.000000 0.500000
vt 0.000000 0.500000
vt -0.500000 1.500000
vt -0.500000 0.500000
vt 0.500000 0.000000
vt 1.000000 -0.500000
vt 0.500000 -1.000000
vt 0.000000 -0.500000
vt 0.500000 -0.500000
vt 0.500000 0.500000
vt -0.500000 -0.500000
vt -0.500000 0.500000
vt 0.000000 0.500000
vt -0.500000 0.500000
vn -0.6667 -0.3333 -0.6667
vn 0.6667 -0.3333 0.6667
vn -0.6667 -0.3333 0.6667
vn 0.6667 -0.3333 -0.6667
vn 0.0000 1.0000 0.0000
vn -0.6667 0.3333 -0.6667
vn 0.6667 0.3333 -0.6667
vn 0.6667 0.3333 0.6667
vn -0.6667 0.3333 0.6667
usemtl Material.001
s 1
f 3/1/1 4/2/1 5/3/1
f 1/4/2 4/2/2 2/5/2
f 5/6/3 4/2/3 1/4/3
f 2/7/4 4/8/4 3/9/4
f 1/10/5 2/11/5 3/12/5 5/13/5
f 5/3/6 6/14/6 3/1/6
f 3/1/7 6/14/7 2/15/7
f 2/7/8 6/16/8 1/17/8
f 1/18/9 6/16/9 5/19/9
