# Blender v2.81 (sub 16) OBJ File: 'pack1.blend'
# www.blender.org
mtllib dodecahedron.mtl
o dodecahedron_Cube.002
v 0.809100 0.809100 -0.809100
v 0.809100 -0.809100 -0.809100
v -0.809100 -0.809100 -0.809100
v -0.809100 0.809100 -0.809100
v 0.809100 0.809099 0.809100
v 0.809099 -0.809101 0.809100
v -0.809100 -0.809100 0.809100
v -0.809100 0.809100 0.809100
v 0.500023 -1.309124 -0.000000
v -0.500024 -1.309124 -0.000000
v 0.000000 0.500023 1.309124
v -0.000000 -0.500024 1.309124
v -1.309124 0.000001 -0.500024
v -1.309124 0.000000 0.500024
v 1.309124 -0.000000 -0.500024
v 1.309124 -0.000001 0.500024
v 0.500024 1.309124 0.000000
v -0.500023 1.309124 0.000000
v 0.000000 0.500024 -1.309124
v 0.000000 -0.500023 -1.309124
vt 0.500000 0.750012
vt 0.500000 0.249988
vt 0.095450 0.095450
vt -0.154562 0.500000
vt 0.095450 0.904550
vt 0.500000 0.750012
vt 0.095450 0.904550
vt -0.154562 0.500000
vt 0.095450 0.095450
vt 0.500000 0.249988
vt 0.500000 0.249988
vt 0.500000 0.750012
vt 0.095450 0.904550
vt -0.154562 0.500000
vt 0.095450 0.095450
vt 0.750012 0.500000
vt 0.904550 0.904550
vt 0.500000 1.154562
vt 0.095450 0.904550
vt 0.249988 0.500000
vt 0.500000 0.249988
vt 0.500000 0.750012
vt 0.904550 0.904550
vt 1.154562 0.500000
vt 0.904550 0.095450
vt 0.750012 0.500000
vt 0.904550 0.095450
vt 0.500000 -0.154562
vt 0.095450 0.095450
vt 0.249988 0.500000
vt 0.904550 0.095450
vt 0.500000 -0.154562
vt 0.904550 0.904550
vt 0.904550 0.095450
vt 1.154562 0.500000
vt 0.095450 0.095450
vt -0.154562 0.500000
vt 0.095450 0.904550
vt 1.154562 0.500000
vt 0.904550 0.904550
vt 0.500000 1.154562
vt 0.904550 0.904550
vt 1.154562 0.500000
vn -0.5257 0.0000 -0.8507
vn -0.5257 0.0000 0.8507
vn 0.8507 -0.5257 0.0000
vn -0.0000 -0.8507 0.5257
vn -0.8507 0.5257 -0.0000
vn 0.0000 0.8507 -0.5257
vn -0.0000 -0.8507 -0.5257
vn 0.5257 -0.0000 0.8507
vn -0.8507 -0.5257 -0.0000
vn 0.8507 0.5257 0.0000
vn 0.0000 0.8507 0.5257
vn 0.5257 0.0000 -0.8507
usemtl Material.001
s 1
f 19/1/1 20/2/1 3/3/1 13/4/1 4/5/1
f 11/6/2 8/7/2 14/8/2 7/9/2 12/10/2
f 15/11/3 16/12/3 6/13/3 9/14/3 2/15/3
f 9/16/4 6/17/4 12/18/4 7/19/4 10/20/4
f 13/21/5 14/22/5 8/23/5 18/24/5 4/25/5
f 17/26/6 1/27/6 19/28/6 4/29/6 18/30/6
f 2/31/7 9/16/7 10/20/7 3/3/7 20/32/7
f 5/33/8 11/6/8 12/10/8 6/34/8 16/35/8
f 3/36/9 10/37/9 7/38/9 14/22/9 13/21/9
f 1/27/10 17/39/10 5/40/10 16/12/10 15/11/10
f 5/33/11 17/26/11 18/30/11 8/7/11 11/41/11
f 1/42/12 15/43/12 2/31/12 20/2/12 19/1/12
