# Blender v2.81 (sub 16) OBJ File: 'pack1.blend'
# www.blender.org
mtllib half_pyramid_base.mtl
o half_pyramid_base_Cone.004
v -0.500000 0.500000 0.000000
v -1.000000 -0.500000 -0.000000
v -0.000000 -0.500000 1.000000
v -0.000000 0.500000 0.500000
v 0.000000 0.500000 -0.500000
v 0.000000 -0.500000 -1.000000
v 1.000000 -0.500000 0.000000
v 0.500000 0.500000 0.000000
vt 0.500000 0.500000
vt 0.500000 0.000000
vt 0.000000 0.000000
vt 0.250000 0.500000
vt 0.500000 0.500000
vt 0.500000 0.000000
vt 0.000000 0.000000
vt 0.250000 0.500000
vt 1.000000 -0.500000
vt 0.500000 -1.000000
vt 0.000000 -0.500000
vt 0.500000 0.500000
vt 0.500000 0.000000
vt 1.000000 0.000000
vt 0.750000 0.500000
vt 0.500000 0.250000
vt 0.500000 0.750000
vn -0.6667 0.3333 0.6667
vn -0.6667 0.3333 -0.6667
vn -0.0000 -1.0000 -0.0000
vn 0.6667 0.3333 0.6667
vn 0.6667 0.3333 -0.6667
vn 0.0000 1.0000 0.0000
usemtl Material.001
s 1
f 1/1/1 2/2/1 3/3/1 4/4/1
f 5/5/2 6/6/2 2/7/2 1/8/2
f 6/6/3 7/9/3 3/10/3 2/11/3
f 4/12/4 3/13/4 7/14/4 8/15/4
f 8/15/5 7/14/5 6/6/5 5/5/5
f 4/16/6 8/15/6 5/17/6 1/8/6
