# Blender v2.81 (sub 16) OBJ File: 'pack1.blend'
# www.blender.org
mtllib hexagon_pyramid.mtl
o hexagon_pyramid_Cone.006
v -0.192825 -0.322239 -0.984932
v 0.041441 1.666116 0.010841
v 0.869111 -0.351927 -0.481566
v 0.718511 -0.355767 0.684312
v -0.436500 -0.328453 0.901498
v -0.999737 -0.307731 -0.130152
vt 0.095492 0.000000
vt 0.500000 1.000000
vt 0.654509 0.000000
vt 0.500000 0.000000
vt 0.975528 0.000000
vt 0.793893 0.000000
vt 0.206107 0.000000
vt 0.024472 0.000000
vt 0.654508 0.000000
vt 0.095491 0.000000
vt 0.975528 -0.345492
vt 0.793893 -0.904509
vt 0.206107 -0.904508
vt 0.024472 -0.345491
vn -0.8040 0.3922 0.4469
vn 0.4063 0.3704 -0.8353
vn 0.1804 0.3647 0.9135
vn -0.6644 0.3958 -0.6339
vn 0.9284 0.3512 0.1211
vn -0.0249 -0.9997 -0.0065
usemtl Material.001
s 1
f 5/1/1 2/2/1 6/3/1
f 1/4/2 2/2/2 3/5/2
f 4/6/3 2/2/3 5/7/3
f 6/8/4 2/2/4 1/4/4
f 3/9/5 2/2/5 4/10/5
f 1/4/6 3/11/6 4/12/6 5/13/6 6/14/6
