# Blender v2.81 (sub 16) OBJ File: 'pack1.blend'
# www.blender.org
mtllib hollow_cylinder.mtl
o hollow_cylinder_Cylinder.001
v -0.000000 1.038050 1.000050
v -0.000000 -1.038150 1.000050
v 0.195090 1.038050 0.980835
v 0.195090 -1.038150 0.980835
v 0.382683 1.038050 0.923929
v 0.382683 -1.038150 0.923929
v 0.555570 1.038050 0.831519
v 0.555570 -1.038150 0.831519
v 0.707107 1.038050 0.707157
v 0.707107 -1.038150 0.707156
v 0.831470 1.038050 0.555620
v 0.831470 -1.038150 0.555620
v 0.923880 1.038050 0.382733
v 0.923880 -1.038150 0.382733
v 0.980785 1.038050 0.195140
v 0.980785 -1.038150 0.195140
v 1.000000 1.038050 0.000050
v 1.000000 -1.038150 0.000050
v 0.980785 1.038050 -0.195040
v 0.980785 -1.038150 -0.195041
v 0.923880 1.038050 -0.382634
v 0.923880 -1.038150 -0.382634
v 0.831470 1.038050 -0.555520
v 0.831470 -1.038150 -0.555521
v 0.707107 1.038050 -0.707057
v 0.707107 -1.038150 -0.707057
v 0.555570 1.038050 -0.831420
v 0.555570 -1.038150 -0.831420
v 0.382683 1.038050 -0.923830
v 0.382683 -1.038150 -0.923830
v 0.195090 1.038050 -0.980735
v 0.195090 -1.038150 -0.980736
v -0.000000 1.038050 -0.999950
v -0.000000 -1.038150 -0.999950
v -0.195091 1.038050 -0.980735
v -0.195091 -1.038150 -0.980736
v -0.382684 1.038050 -0.923829
v -0.382684 -1.038150 -0.923830
v -0.555571 1.038050 -0.831419
v -0.555571 -1.038150 -0.831420
v -0.707107 1.038050 -0.707057
v -0.707107 -1.038150 -0.707057
v -0.831470 1.038050 -0.555520
v -0.831470 -1.038150 -0.555520
v -0.923880 1.038050 -0.382633
v -0.923880 -1.038150 -0.382633
v -0.980785 1.038050 -0.195040
v -0.980785 -1.038150 -0.195040
v -1.000000 1.038050 0.000051
v -1.000000 -1.038150 0.000051
v -0.980785 1.038050 0.195141
v -0.980785 -1.038150 0.195141
v -0.923879 1.038050 0.382734
v -0.923879 -1.038150 0.382734
v -0.831469 1.038050 0.555621
v -0.831469 -1.038150 0.555621
v -0.707106 1.038050 0.707157
v -0.707106 -1.038150 0.707157
v -0.555569 1.038050 0.831520
v -0.555569 -1.038150 0.831520
v -0.382682 1.038050 0.923930
v -0.382682 -1.038150 0.923930
v -0.195089 1.038050 0.980835
v -0.195089 -1.038150 0.980835
v 0.000000 1.038469 0.800050
v 0.000000 -1.038368 0.800050
v 0.156072 1.038469 0.784678
v 0.156072 -1.038368 0.784678
v 0.306147 1.038469 0.739154
v 0.306147 -1.038368 0.739153
v 0.444456 1.038469 0.665225
v 0.444456 -1.038368 0.665225
v 0.565685 1.038469 0.565735
v 0.565685 -1.038368 0.565735
v 0.665176 1.038469 0.444506
v 0.665176 -1.038368 0.444506
v 0.739104 1.038469 0.306197
v 0.739104 -1.038368 0.306196
v 0.784628 1.038469 0.156122
v 0.784628 -1.038368 0.156122
v 0.800000 1.038469 0.000050
v 0.800000 -1.038368 0.000050
v 0.784628 1.038469 -0.156022
v 0.784628 -1.038368 -0.156023
v 0.739104 1.038468 -0.306097
v 0.739104 -1.038368 -0.306097
v 0.665176 1.038469 -0.444406
v 0.665176 -1.038368 -0.444407
v 0.565685 1.038469 -0.565636
v 0.565685 -1.038368 -0.565636
v 0.444456 1.038469 -0.665126
v 0.444456 -1.038368 -0.665126
v 0.306147 1.038469 -0.739054
v 0.306147 -1.038368 -0.739054
v 0.156072 1.038469 -0.784578
v 0.156072 -1.038368 -0.784579
v -0.000000 1.038469 -0.799950
v -0.000000 -1.038368 -0.799950
v -0.156073 1.038469 -0.784578
v -0.156073 -1.038368 -0.784579
v -0.306147 1.038469 -0.739054
v -0.306147 -1.038368 -0.739054
v -0.444457 1.038469 -0.665126
v -0.444457 -1.038368 -0.665126
v -0.565686 1.038469 -0.565635
v -0.565686 -1.038368 -0.565635
v -0.665176 1.038469 -0.444406
v -0.665176 -1.038368 -0.444406
v -0.739104 1.038469 -0.306096
v -0.739104 -1.038368 -0.306097
v -0.784628 1.038469 -0.156022
v -0.784628 -1.038368 -0.156022
v -0.800000 1.038469 0.000051
v -0.800000 -1.038368 0.000050
v -0.784628 1.038469 0.156123
v -0.784628 -1.038368 0.156123
v -0.739103 1.038469 0.306197
v -0.739103 -1.038368 0.306197
v -0.665175 1.038469 0.444507
v -0.665175 -1.038368 0.444507
v -0.565685 1.038469 0.565736
v -0.565685 -1.038368 0.565736
v -0.444455 1.038469 0.665226
v -0.444455 -1.038368 0.665226
v -0.306146 1.038469 0.739154
v -0.306146 -1.038368 0.739154
v -0.156071 1.038469 0.784678
v -0.156071 -1.038368 0.784678
vt 0.500000 0.981000
vt 0.500000 2.019100
vt 0.597545 2.019100
vt 0.597545 0.981000
vt 0.691342 2.019100
vt 0.691342 0.981000
vt 0.777785 2.019100
vt 0.777785 0.981000
vt 0.853553 2.019100
vt 0.853553 0.981000
vt 0.777785 2.019100
vt 0.777785 0.981000
vt 0.691342 2.019100
vt 0.691342 0.981000
vt 0.597545 2.019100
vt 0.597545 0.981000
vt 0.500000 2.019100
vt 0.500000 0.981000
vt 0.402455 2.019100
vt 0.402455 0.981000
vt 0.308658 2.019100
vt 0.308658 0.981000
vt 0.222215 2.019100
vt 0.222215 0.981000
vt 0.146447 2.019100
vt 0.146447 0.981000
vt 0.853553 0.981000
vt 0.853553 2.019100
vt 0.777785 2.019100
vt 0.777785 0.981000
vt 0.691342 2.019100
vt 0.691342 0.981000
vt 0.597545 2.019100
vt 0.597545 0.981000
vt 0.500000 2.019100
vt 0.500000 0.981000
vt 0.402455 2.019100
vt 0.402455 0.981000
vt 0.308658 2.019100
vt 0.308658 0.981000
vt 0.222215 2.019100
vt 0.222215 0.981000
vt 0.146446 2.019100
vt 0.146446 0.981000
vt 0.222215 2.019100
vt 0.222215 0.981000
vt 0.308659 2.019100
vt 0.308659 0.981000
vt 0.402455 2.019100
vt 0.402455 0.981000
vt 0.500000 2.019100
vt 0.500000 0.981000
vt 0.597546 2.019100
vt 0.597546 0.981000
vt 0.691342 2.019100
vt 0.691342 0.981000
vt 0.777786 2.019100
vt 0.777786 0.981000
vt 0.853554 2.019100
vt 0.853554 0.981000
vt 0.146447 0.981000
vt 0.146447 2.019100
vt 0.222215 2.019100
vt 0.222215 0.981000
vt 0.308659 2.019100
vt 0.308659 0.981000
vt 0.402456 0.981000
vt 0.402456 2.019100
vt 0.500000 0.980791
vt 0.578036 0.980791
vt 0.578036 2.019209
vt 0.500000 2.019209
vt 0.653073 0.980791
vt 0.653073 2.019209
vt 0.722228 0.980791
vt 0.722228 2.019209
vt 0.782843 0.980791
vt 0.782843 2.019209
vt 0.722228 0.980791
vt 0.722228 2.019209
vt 0.653073 0.980791
vt 0.653073 2.019209
vt 0.578036 0.980791
vt 0.578036 2.019209
vt 0.500000 0.980791
vt 0.500000 2.019209
vt 0.421964 0.980791
vt 0.421964 2.019209
vt 0.346927 0.980791
vt 0.346927 2.019209
vt 0.277772 0.980791
vt 0.277772 2.019209
vt 0.217157 0.980791
vt 0.217157 2.019209
vt 0.782843 0.980791
vt 0.722228 0.980791
vt 0.722228 2.019209
vt 0.782843 2.019209
vt 0.653073 0.980791
vt 0.653073 2.019209
vt 0.578036 0.980791
vt 0.578036 2.019209
vt 0.500000 0.980791
vt 0.500000 2.019209
vt 0.421964 0.980791
vt 0.421964 2.019209
vt 0.346926 0.980791
vt 0.346926 2.019209
vt 0.277772 0.980791
vt 0.277772 2.019209
vt 0.217157 0.980791
vt 0.217157 2.019209
vt 0.277772 0.980791
vt 0.277772 2.019209
vt 0.346927 0.980791
vt 0.346927 2.019209
vt 0.421964 0.980791
vt 0.421964 2.019209
vt 0.500000 0.980791
vt 0.500000 2.019209
vt 0.578037 0.980791
vt 0.578037 2.019209
vt 0.653074 0.980791
vt 0.653074 2.019209
vt 0.722229 0.980791
vt 0.722229 2.019209
vt 0.782843 0.980791
vt 0.782843 2.019209
vt 0.217158 0.980791
vt 0.277772 0.980791
vt 0.277772 2.019209
vt 0.217158 2.019209
vt 0.346927 0.980791
vt 0.346927 2.019209
vt 0.421964 0.980791
vt 0.421964 2.019209
vt 0.084266 0.777786
vt 0.167412 0.722229
vt 0.130448 0.653074
vt 0.038060 0.691342
vt 0.597545 0.990393
vt 0.578036 0.892314
vt 0.653073 0.869552
vt 0.691342 0.961940
vt 0.500000 0.000000
vt 0.500000 -0.100000
vt 0.421964 -0.107686
vt 0.402456 -0.009607
vt 0.961940 0.691342
vt 0.869552 0.653073
vt 0.892314 0.578036
vt 0.990393 0.597545
vt 0.915735 0.222215
vt 0.832588 0.277772
vt 0.782843 0.217157
vt 0.853553 0.146447
vt 0.915735 0.777785
vt 0.832588 0.722228
vt 0.782843 0.782843
vt 0.853553 0.853553
vt 0.500000 0.000000
vt 0.500000 0.100000
vt 0.421964 0.107686
vt 0.402455 0.009607
vt 0.961940 0.308658
vt 0.869552 0.346927
vt 0.892314 0.421964
vt 0.990393 0.402455
vt 0.084265 0.222215
vt 0.167412 0.277772
vt 0.130448 0.346927
vt 0.038060 0.308659
vt 0.038060 0.691342
vt 0.130448 0.653074
vt 0.167412 0.722229
vt 0.084266 0.777786
vt 0.597545 0.009607
vt 0.578036 0.107686
vt 0.653073 0.130448
vt 0.691342 0.038060
vt 0.402456 0.990393
vt 0.421964 0.892314
vt 0.500000 0.900000
vt 0.500000 1.000000
vt 0.146446 0.146447
vt 0.217157 0.217157
vt 0.277772 0.167412
vt 0.222215 0.084265
vt 0.009607 0.597546
vt 0.107686 0.578037
vt 0.100000 0.500000
vt 0.000000 0.500000
vt 0.308659 0.961940
vt 0.346927 0.869552
vt 0.277772 0.832588
vt 0.222215 0.915735
vt 0.853553 0.853553
vt 0.782843 0.782843
vt 0.832588 0.722228
vt 0.915735 0.777785
vt 0.990393 0.402455
vt 0.892314 0.421964
vt 0.869552 0.346927
vt 0.961940 0.308658
vt 0.777785 0.915735
vt 0.722228 0.832588
vt 0.653073 0.869552
vt 0.691342 0.961940
vt 0.691342 0.038060
vt 0.653073 0.130448
vt 0.578036 0.107686
vt 0.597545 0.009607
vt 0.222215 0.084265
vt 0.277772 0.167412
vt 0.217157 0.217157
vt 0.146446 0.146447
vt 0.000000 0.500000
vt -0.100000 0.500000
vt -0.107686 0.578036
vt -0.009607 0.597545
vt 0.597545 0.990393
vt 0.578036 0.892314
vt 0.500000 0.900000
vt 0.500000 1.000000
vt 0.777785 0.084265
vt 0.722228 0.167412
vt 0.782843 0.217157
vt 0.853553 0.146447
vt 0.000000 0.500000
vt 0.100000 0.500000
vt 0.107686 0.578037
vt 0.009607 0.597546
vt 0.222215 0.915735
vt 0.277772 0.832588
vt 0.346927 0.869552
vt 0.308659 0.961940
vt 0.308658 0.038060
vt 0.346926 0.130448
vt 0.421964 0.107686
vt 0.402455 0.009607
vt 0.009607 0.402455
vt 0.107686 0.421964
vt 0.130448 0.346927
vt 0.038060 0.308659
vt 0.146447 0.853554
vt 0.217158 0.782843
vt 0.722228 0.832588
vt 0.777785 0.915735
vt 0.900000 0.500000
vt 1.000000 0.500000
vt 0.500000 0.000000
vt 0.500000 -0.100000
vt 0.578036 -0.107686
vt 0.597545 -0.009607
vt 0.722228 0.167412
vt 0.777785 0.084265
vt 0.961940 0.691342
vt 0.869552 0.653073
vt 0.346926 0.130448
vt 0.308658 0.038060
vt 0.915735 0.222215
vt 0.832588 0.277772
vt 0.107686 0.421964
vt 0.009607 0.402455
vt 0.217158 0.782843
vt 0.146447 0.853554
vt 0.500000 0.000000
vt 0.500000 0.100000
vt 0.084265 0.222215
vt 0.167412 0.277772
vt 0.402456 0.990393
vt 0.421964 0.892314
vt 0.900000 0.500000
vt 1.000000 0.500000
vt 0.000000 0.500000
vt -0.100000 0.500000
vt -0.107686 0.421964
vt -0.009607 0.402455
vt 0.990393 0.597545
vt 0.892314 0.578036
vn 0.0980 -0.0000 0.9952
vn 0.2903 -0.0000 0.9569
vn 0.4714 -0.0000 0.8819
vn 0.6344 -0.0000 0.7730
vn 0.7730 -0.0000 0.6344
vn 0.8819 -0.0000 0.4714
vn 0.9569 -0.0000 0.2903
vn 0.9952 -0.0000 0.0980
vn 0.9952 0.0000 -0.0980
vn 0.9569 0.0000 -0.2903
vn 0.8819 0.0000 -0.4714
vn 0.7730 0.0000 -0.6344
vn 0.6344 0.0000 -0.7730
vn 0.4714 0.0000 -0.8819
vn 0.2903 0.0000 -0.9569
vn 0.0980 0.0000 -0.9952
vn -0.0980 0.0000 -0.9952
vn -0.2903 0.0000 -0.9569
vn -0.4714 0.0000 -0.8819
vn -0.6344 0.0000 -0.7730
vn -0.7730 0.0000 -0.6344
vn -0.8819 0.0000 -0.4714
vn -0.9569 0.0000 -0.2903
vn -0.9952 0.0000 -0.0980
vn -0.9952 -0.0000 0.0980
vn -0.9569 -0.0000 0.2903
vn -0.8819 -0.0000 0.4714
vn -0.7730 -0.0000 0.6344
vn -0.6344 -0.0000 0.7730
vn -0.4714 -0.0000 0.8819
vn -0.0980 -0.0000 0.9952
vn -0.2903 -0.0000 0.9569
vn -0.0017 1.0000 0.0012
vn -0.0019 1.0000 0.0008
vn 0.0002 -1.0000 0.0011
vn 0.0004 -1.0000 0.0010
vn -0.0000 1.0000 0.0021
vn -0.0004 1.0000 0.0021
vn 0.0010 -1.0000 0.0004
vn 0.0011 -1.0000 0.0002
vn 0.0009 -1.0000 -0.0006
vn 0.0008 -1.0000 -0.0008
vn 0.0017 1.0000 0.0012
vn 0.0015 1.0000 0.0015
vn 0.0000 -1.0000 -0.0011
vn -0.0002 -1.0000 -0.0011
vn 0.0019 1.0000 -0.0008
vn 0.0021 1.0000 -0.0004
vn -0.0009 -1.0000 -0.0006
vn -0.0010 -1.0000 -0.0004
vn -0.0010 -1.0000 0.0004
vn -0.0009 -1.0000 0.0006
vn 0.0004 1.0000 -0.0021
vn 0.0008 1.0000 -0.0019
vn -0.0002 -1.0000 0.0011
vn 0.0000 -1.0000 0.0011
vn -0.0015 1.0000 -0.0015
vn -0.0012 1.0000 -0.0017
vn -0.0021 1.0000 0.0004
vn -0.0021 1.0000 0.0000
vn -0.0008 1.0000 0.0019
vn -0.0012 1.0000 0.0017
vn 0.0008 -1.0000 0.0008
vn 0.0009 -1.0000 0.0006
vn 0.0011 -1.0000 -0.0002
vn 0.0010 -1.0000 -0.0004
vn 0.0012 1.0000 0.0017
vn 0.0008 1.0000 0.0019
vn 0.0004 -1.0000 -0.0010
vn 0.0002 -1.0000 -0.0011
vn -0.0006 -1.0000 -0.0009
vn -0.0008 -1.0000 -0.0008
vn 0.0021 1.0000 -0.0000
vn 0.0021 1.0000 0.0004
vn 0.0004 1.0000 0.0021
vn 0.0012 1.0000 -0.0017
vn 0.0015 1.0000 -0.0015
vn -0.0011 -1.0000 -0.0000
vn -0.0011 -1.0000 0.0002
vn -0.0006 -1.0000 0.0009
vn -0.0004 -1.0000 0.0010
vn -0.0008 1.0000 -0.0019
vn -0.0004 1.0000 -0.0021
vn -0.0021 1.0000 -0.0004
vn -0.0019 1.0000 -0.0008
vn -0.0015 1.0000 0.0015
vn 0.0006 -1.0000 0.0009
vn 0.0011 -1.0000 0.0000
vn 0.0006 -1.0000 -0.0009
vn 0.0019 1.0000 0.0008
vn -0.0004 -1.0000 -0.0010
vn 0.0017 1.0000 -0.0012
vn -0.0011 -1.0000 -0.0002
vn -0.0008 -1.0000 0.0008
vn -0.0000 1.0000 -0.0021
vn -0.0017 1.0000 -0.0012
usemtl Material.001
s 1
f 1/1/1 2/2/1 4/3/1 3/4/1
f 3/4/2 4/3/2 6/5/2 5/6/2
f 5/6/3 6/5/3 8/7/3 7/8/3
f 7/8/4 8/7/4 10/9/4 9/10/4
f 9/10/5 10/9/5 12/11/5 11/12/5
f 11/12/6 12/11/6 14/13/6 13/14/6
f 13/14/7 14/13/7 16/15/7 15/16/7
f 15/16/8 16/15/8 18/17/8 17/18/8
f 17/18/9 18/17/9 20/19/9 19/20/9
f 19/20/10 20/19/10 22/21/10 21/22/10
f 21/22/11 22/21/11 24/23/11 23/24/11
f 23/24/12 24/23/12 26/25/12 25/26/12
f 25/27/13 26/28/13 28/29/13 27/30/13
f 27/30/14 28/29/14 30/31/14 29/32/14
f 29/32/15 30/31/15 32/33/15 31/34/15
f 31/34/16 32/33/16 34/35/16 33/36/16
f 33/36/17 34/35/17 36/37/17 35/38/17
f 35/38/18 36/37/18 38/39/18 37/40/18
f 37/40/19 38/39/19 40/41/19 39/42/19
f 39/42/20 40/41/20 42/43/20 41/44/20
f 41/44/21 42/43/21 44/45/21 43/46/21
f 43/46/22 44/45/22 46/47/22 45/48/22
f 45/48/23 46/47/23 48/49/23 47/50/23
f 47/50/24 48/49/24 50/51/24 49/52/24
f 49/52/25 50/51/25 52/53/25 51/54/25
f 51/54/26 52/53/26 54/55/26 53/56/26
f 53/56/27 54/55/27 56/57/27 55/58/27
f 55/58/28 56/57/28 58/59/28 57/60/28
f 57/61/29 58/62/29 60/63/29 59/64/29
f 59/64/30 60/63/30 62/65/30 61/66/30
f 63/67/31 64/68/31 2/2/31 1/1/31
f 61/66/32 62/65/32 64/68/32 63/67/32
f 65/69/17 67/70/17 68/71/17 66/72/17
f 67/70/18 69/73/18 70/74/18 68/71/18
f 69/73/19 71/75/19 72/76/19 70/74/19
f 71/75/20 73/77/20 74/78/20 72/76/20
f 73/77/21 75/79/21 76/80/21 74/78/21
f 75/79/22 77/81/22 78/82/22 76/80/22
f 77/81/23 79/83/23 80/84/23 78/82/23
f 79/83/24 81/85/24 82/86/24 80/84/24
f 81/85/25 83/87/25 84/88/25 82/86/25
f 83/87/26 85/89/26 86/90/26 84/88/26
f 85/89/27 87/91/27 88/92/27 86/90/27
f 87/91/28 89/93/28 90/94/28 88/92/28
f 89/95/29 91/96/29 92/97/29 90/98/29
f 91/96/30 93/99/30 94/100/30 92/97/30
f 93/99/32 95/101/32 96/102/32 94/100/32
f 95/101/31 97/103/31 98/104/31 96/102/31
f 97/103/1 99/105/1 100/106/1 98/104/1
f 99/105/2 101/107/2 102/108/2 100/106/2
f 101/107/3 103/109/3 104/110/3 102/108/3
f 103/109/4 105/111/4 106/112/4 104/110/4
f 105/111/5 107/113/5 108/114/5 106/112/5
f 107/113/6 109/115/6 110/116/6 108/114/6
f 109/115/7 111/117/7 112/118/7 110/116/7
f 111/117/8 113/119/8 114/120/8 112/118/8
f 113/119/9 115/121/9 116/122/9 114/120/9
f 115/121/10 117/123/10 118/124/10 116/122/10
f 117/123/11 119/125/11 120/126/11 118/124/11
f 119/125/12 121/127/12 122/128/12 120/126/12
f 121/129/13 123/130/13 124/131/13 122/132/13
f 123/130/14 125/133/14 126/134/14 124/131/14
f 127/135/16 65/69/16 66/72/16 128/136/16
f 125/133/15 127/135/15 128/136/15 126/134/15
f 55/137/33 119/138/33 117/139/34 53/140/34
f 4/141/35 68/142/35 70/143/36 6/144/36
f 1/145/37 65/146/37 127/147/38 63/148/38
f 14/149/39 78/150/39 80/151/40 16/152/40
f 24/153/41 88/154/41 90/155/42 26/156/42
f 11/157/43 75/158/43 73/159/44 9/160/44
f 34/161/45 98/162/45 100/163/46 36/164/46
f 21/165/47 85/166/47 83/167/48 19/168/48
f 44/169/49 108/170/49 110/171/50 46/172/50
f 54/173/51 118/174/51 120/175/52 56/176/52
f 31/177/53 95/178/53 93/179/54 29/180/54
f 64/181/55 128/182/55 66/183/56 2/184/56
f 41/185/57 105/186/57 103/187/58 39/188/58
f 51/189/59 115/190/59 113/191/60 49/192/60
f 61/193/61 125/194/61 123/195/62 59/196/62
f 10/197/63 74/198/63 76/199/64 12/200/64
f 20/201/65 84/202/65 86/203/66 22/204/66
f 7/205/67 71/206/67 69/207/68 5/208/68
f 30/209/69 94/210/69 96/211/70 32/212/70
f 40/213/71 104/214/71 106/215/72 42/216/72
f 17/217/73 81/218/73 79/219/74 15/220/74
f 3/221/75 67/222/75 65/223/37 1/224/37
f 27/225/76 91/226/76 89/227/77 25/228/77
f 50/229/78 114/230/78 116/231/79 52/232/79
f 60/233/80 124/234/80 126/235/81 62/236/81
f 37/237/82 101/238/82 99/239/83 35/240/83
f 47/241/84 111/242/84 109/243/85 45/244/85
f 57/245/86 121/246/86 119/138/33 55/137/33
f 6/144/36 70/143/36 72/247/87 8/248/87
f 16/152/40 80/151/40 82/249/88 18/250/88
f 2/251/56 66/252/56 68/253/35 4/254/35
f 26/156/42 90/155/42 92/255/89 28/256/89
f 13/257/90 77/258/90 75/158/43 11/157/43
f 36/164/46 100/163/46 102/259/91 38/260/91
f 23/261/92 87/262/92 85/166/47 21/165/47
f 46/172/50 110/171/50 112/263/93 48/264/93
f 56/176/52 120/175/52 122/265/94 58/266/94
f 33/267/95 97/268/95 95/178/53 31/177/53
f 43/269/96 107/270/96 105/186/57 41/185/57
f 53/140/34 117/139/34 115/190/59 51/189/59
f 63/271/38 127/272/38 125/194/61 61/193/61
f 12/200/64 76/199/64 78/150/39 14/149/39
f 22/204/66 86/203/66 88/154/41 24/153/41
f 9/160/44 73/159/44 71/206/67 7/205/67
f 32/212/70 96/211/70 98/162/45 34/161/45
f 19/168/48 83/167/48 81/273/73 17/274/73
f 42/216/72 106/215/72 108/170/49 44/169/49
f 29/180/54 93/179/54 91/226/76 27/225/76
f 52/232/79 116/231/79 118/174/51 54/173/51
f 62/236/81 126/235/81 128/182/55 64/181/55
f 39/188/58 103/187/58 101/238/82 37/237/82
f 49/192/60 113/191/60 111/242/84 47/241/84
f 59/196/62 123/195/62 121/246/86 57/245/86
f 8/248/87 72/247/87 74/198/63 10/197/63
f 18/275/88 82/276/88 84/277/65 20/278/65
f 5/208/68 69/207/68 67/222/75 3/221/75
f 28/256/89 92/255/89 94/210/69 30/209/69
f 15/279/74 79/280/74 77/258/90 13/257/90
f 38/260/91 102/259/91 104/214/71 40/213/71
f 25/228/77 89/227/77 87/262/92 23/261/92
f 48/264/93 112/263/93 114/230/78 50/229/78
f 58/266/94 122/265/94 124/234/80 60/233/80
f 35/240/83 99/239/83 97/268/95 33/267/95
f 45/244/85 109/243/85 107/270/96 43/269/96
