# Blender v2.81 (sub 16) OBJ File: 'pack1.blend'
# www.blender.org
mtllib pentagon_cylinder.mtl
o pentagon_cylinder_Cylinder.003
v -0.000000 1.000000 1.000000
v -0.000000 -1.000000 1.000000
v 0.951057 1.000000 0.309017
v 0.951057 -1.000000 0.309017
v 0.587785 1.000000 -0.809017
v 0.587785 -1.000000 -0.809017
v -0.587785 1.000000 -0.809017
v -0.587785 -1.000000 -0.809017
v -0.951056 1.000000 0.309017
v -0.951056 -1.000000 0.309017
vt 0.400000 0.487457
vt 0.400000 1.000000
vt 0.200000 1.000000
vt 0.200000 0.487457
vt 0.000000 1.000000
vt -0.000000 0.487457
vt 1.000000 0.487457
vt 1.000000 1.000000
vt 0.800000 1.000000
vt 0.800000 0.487457
vt 0.307768 0.394361
vt 0.117557 0.487457
vt 0.000000 0.243729
vt 0.117557 0.000000
vt 0.307768 0.093096
vt 0.600000 0.487457
vt 0.600000 1.000000
vt 0.615537 0.093096
vt 0.615537 0.394361
vt 0.425325 0.487457
vt 0.307768 0.243729
vt 0.425325 0.000000
vn 0.5878 -0.0000 0.8090
vn 0.9511 0.0000 -0.3090
vn -0.0000 0.0000 -1.0000
vn 0.0000 -1.0000 -0.0000
vn -0.5878 -0.0000 0.8090
vn -0.9511 0.0000 -0.3090
vn 0.0000 1.0000 0.0000
usemtl Material.001
s 1
f 1/1/1 2/2/1 4/3/1 3/4/1
f 3/4/2 4/3/2 6/5/2 5/6/2
f 5/7/3 6/8/3 8/9/3 7/10/3
f 4/11/4 2/12/4 10/13/4 8/14/4 6/15/4
f 9/16/5 10/17/5 2/2/5 1/1/5
f 7/10/6 8/9/6 10/17/6 9/16/6
f 1/18/7 3/19/7 5/20/7 7/21/7 9/22/7
