# Blender v2.81 (sub 16) OBJ File: 'pack1.blend'
# www.blender.org
mtllib pyramid.mtl
o pyramid_Cone.008
v 0.000000 -0.400000 -1.600000
v 1.000000 -0.400000 -0.600000
v -0.000000 -0.400000 0.400000
v 0.000000 1.600000 -0.600000
v -1.000000 -0.400000 -0.600000
vt 0.000000 0.000000
vt 0.500000 1.000000
vt 0.500000 0.000000
vt 0.500000 0.000000
vt 1.000000 0.000000
vt 0.000000 0.000000
vt 0.000000 0.000000
vt -0.500000 1.000000
vt -0.500000 0.000000
vt 1.000000 -0.500000
vt 0.500000 -1.000000
vt 0.000000 -0.500000
vn -0.6667 0.3333 0.6667
vn 0.6667 0.3333 -0.6667
vn -0.6667 0.3333 -0.6667
vn 0.6667 0.3333 0.6667
vn 0.0000 -1.0000 -0.0000
usemtl Material.001
s 1
f 3/1/1 4/2/1 5/3/1
f 1/4/2 4/2/2 2/5/2
f 5/6/3 4/2/3 1/4/3
f 2/7/4 4/8/4 3/9/4
f 1/4/5 2/10/5 3/11/5 5/12/5
