# Blender v2.81 (sub 16) OBJ File: 'pack1.blend'
# www.blender.org
mtllib wedge_block.mtl
o wedge_block_Cube.004
v -1.000000 0.500000 1.000000
v -1.000000 -1.000000 1.000000
v 1.000000 -1.000000 1.000000
v 1.000000 0.500000 1.000000
v -1.000000 0.500000 0.000000
v -1.000000 -1.000000 -1.000000
v 1.000000 -1.000000 -1.000000
v 1.000000 0.500000 -0.000000
vt -1.000000 0.750000
vt -1.000000 0.000000
vt 0.000000 0.000000
vt 0.000000 0.750000
vt 0.750000 -0.500000
vt 0.000000 -1.000000
vt 0.000000 0.000000
vt 0.750000 0.000000
vt -1.000000 -1.000000
vt 0.000000 -1.000000
vt -0.250000 0.000000
vt -1.000000 0.000000
vt -1.000000 -1.000000
vt -0.250000 -0.500000
vt 1.000000 0.750000
vt 1.000000 0.000000
vt 0.000000 0.000000
vt 0.000000 0.750000
vt 0.000000 -0.500000
vt -1.000000 -0.500000
vt -1.000000 0.000000
vt 0.000000 0.000000
vn 0.0000 -0.0000 1.0000
vn -1.0000 0.0000 0.0000
vn -0.0000 -1.0000 -0.0000
vn 1.0000 0.0000 -0.0000
vn -0.0000 0.5547 -0.8321
vn 0.0000 1.0000 0.0000
usemtl Material.001
s 1
f 1/1/1 2/2/1 3/3/1 4/4/1
f 5/5/2 6/6/2 2/7/2 1/8/2
f 3/3/3 2/2/3 6/9/3 7/10/3
f 4/11/4 3/12/4 7/13/4 8/14/4
f 8/15/5 7/16/5 6/17/5 5/18/5
f 8/19/6 5/20/6 1/21/6 4/22/6
